<svg xmlns="http://www.w3.org/2000/svg" width="633.812" height="610.815" viewBox="0 0 633.812 610.815">
  <g id="error" transform="translate(-115.979 -36.035)">
    <g id="Group_33" data-name="Group 33">
      <g id="Group_1" data-name="Group 1">
        <circle id="Ellipse_1" data-name="Ellipse 1" cx="14.5" cy="14.5" r="14.5" transform="translate(178.71 108.2)" fill="#002346"/>
        <path id="Path_1" data-name="Path 1" d="M193.21,137.7a15,15,0,1,1,15-15A15.018,15.018,0,0,1,193.21,137.7Zm0-29a14,14,0,1,0,14,14A14.015,14.015,0,0,0,193.21,108.7Z" fill="#002346"/>
      </g>
      <g id="Group_25" data-name="Group 25">
        <path id="Path_2" data-name="Path 2" d="M640.06,153.17l-10.72-14.64,1.47-1.09a23.21,23.21,0,0,1,6.66-3.59,16.574,16.574,0,0,1,6.11-.58,93.283,93.283,0,0,1,12.28,2.56c3.23.83,5.54.73,7-.3a5.367,5.367,0,0,0,2.38-3.66,6.647,6.647,0,0,0-1.67-4.66,7.565,7.565,0,0,0-5.12-3.2c-2.08-.3-4.75.47-8,2.33l-9.11-16.3A25.212,25.212,0,0,1,659,106.32q8.865,1.545,16.77,12.31,6.135,8.43,6.42,16.13a18.133,18.133,0,0,1-7.51,16.28,15.064,15.064,0,0,1-7.54,2.83,38.162,38.162,0,0,1-12.85-1.95,24.6,24.6,0,0,0-8.55-1.29,12.727,12.727,0,0,0-5.68,2.54h0Zm-15-12.28,11.49,15.68-13.83,10.12-11.47-15.66Z" transform="matrix(0.839, -0.545, 0.545, 0.839, 17.739, 371.213)" fill="#fff"/>
        <path id="Path_3" data-name="Path 3" d="M180.38,221.75l-23,5.41-.53-2.29a29.005,29.005,0,0,1-.92-9.86,21.611,21.611,0,0,1,2.38-7.6,126.688,126.688,0,0,1,9.32-13.44q4-5.16,3.18-8.47a6.864,6.864,0,0,0-3.18-4.71,8.578,8.578,0,0,0-6.39-.45,9.847,9.847,0,0,0-6.44,4.51c-1.43,2.35-1.85,5.93-1.27,10.77l-24.08,2.56a32.855,32.855,0,0,1,4.42-23q6.33-9.87,23.33-13.85,13.185-3.12,22.59.48,12.75,4.845,15.68,17.26a19.559,19.559,0,0,1-.5,10.59q-1.665,5.445-8.87,14.42-5,6.285-5.88,9.58a16.3,16.3,0,0,0,.16,8.09h0Zm-22.34,11.68,24.63-5.8,5.05,21.71-24.52,5.71-5.16-21.62h0Z" fill="#ebebeb"/>
        <g id="Group_2" data-name="Group 2">
          <path id="Path_4" data-name="Path 4" d="M329.04,183.58c-9.8,10.7-38.93,46.61-53.68,109.23a6.257,6.257,0,0,0,3.65,7.2l60.48,25.59a6.243,6.243,0,0,0,8.19-3.29.049.049,0,0,1,.01-.03c7.89-18.65,33.5-77.47,51.94-100.05a6.244,6.244,0,0,0-.91-8.79,6.761,6.761,0,0,0-1.16-.75L336.44,182.2a6.255,6.255,0,0,0-7.4,1.38h0Z" fill="#fff"/>
          <path id="Path_5" data-name="Path 5" d="M341.94,326.6a6.741,6.741,0,0,1-2.64-.54l-60.48-25.59a6.751,6.751,0,0,1-3.94-7.77c14.92-63.35,44.95-99.79,53.8-109.45h0a6.775,6.775,0,0,1,7.99-1.49l61.12,30.49a6.368,6.368,0,0,1,1.25.81,6.759,6.759,0,0,1,.98,9.5c-18.47,22.62-44.37,82.2-51.87,99.93a6.706,6.706,0,0,1-3.7,3.64,6.637,6.637,0,0,1-2.51.49v-.02Zm-8.27-144.55a5.769,5.769,0,0,0-4.26,1.87h0c-8.81,9.62-38.7,45.89-53.56,109.01a5.751,5.751,0,0,0,3.36,6.62l60.48,25.59a5.736,5.736,0,0,0,7.53-3.02c7.52-17.78,33.47-77.48,52.02-100.2a5.753,5.753,0,0,0-1.9-8.78l-61.12-30.49a5.75,5.75,0,0,0-2.55-.6h0Z" fill="#002346"/>
        </g>
        <g id="Group_3" data-name="Group 3">
          <path id="Path_6" data-name="Path 6" d="M350.44,591.57c-6.39,6.22-16.3,4-16.3,4l-13.94-5.51-3.87-10.93c7.4-1.17,20.47-6.84,20.47-6.84a28.766,28.766,0,0,0,1.94,4.79,52.188,52.188,0,0,0,11.7,14.49h0Z" fill="#f2b3c1"/>
          <path id="Path_7" data-name="Path 7" d="M338.37,596.47a21.306,21.306,0,0,1-4.34-.41l-14.23-5.62-4.15-11.71.59-.09c7.25-1.15,20.22-6.75,20.35-6.8l.51-.22.16.54a27.827,27.827,0,0,0,1.91,4.71,51.268,51.268,0,0,0,11.58,14.34l.41.36-.39.38c-3.86,3.75-8.88,4.54-12.42,4.54l.02-.02Zm-4.05-1.36s9.25,1.97,15.37-3.52a52.255,52.255,0,0,1-11.39-14.26,28.937,28.937,0,0,1-1.81-4.35c-2.44,1.04-12.81,5.35-19.49,6.56l3.6,10.16,13.73,5.43h0v-.02Z" fill="#002346"/>
        </g>
        <g id="Group_4" data-name="Group 4">
          <path id="Path_8" data-name="Path 8" d="M370.44,612.24c-11.77,4.2-14.45,2-14.45,2-9.25-6.56-24.21-7.06-24.21-7.06-1.17,1.85,5.38,17.31,5.38,17.31l-4.87,1.68a74.191,74.191,0,0,1-13.95-29.07c-1.14-7.67,1.86-7.04,1.86-7.04l13.95,5.54s9.91,2.19,16.3-4l3.53,2.52c5.54,2.35,20,.84,20,.84,15.12-2,17.64,5.21,17.64,5.21,2.18,5.85-21.18,12.07-21.18,12.07h0Z" fill="#e46769"/>
          <path id="Path_9" data-name="Path 9" d="M332.12,626.76l-.22-.28a75.052,75.052,0,0,1-14.04-29.27c-.55-3.68-.25-6.06.87-7.12a1.881,1.881,0,0,1,1.58-.53l14.03,5.56h0s9.65,2.03,15.77-3.89l.3-.29,3.82,2.73c5.39,2.24,19.56.8,19.7.78,15.33-2.03,18.06,5.23,18.16,5.54a2.869,2.869,0,0,1-.21,2.41c-2.73,5.28-20.29,10.04-21.29,10.31-11.68,4.17-14.62,2.15-14.92,1.91-8.2-5.81-21.21-6.8-23.54-6.93-.22,1.74,2.57,9.7,5.49,16.6l.21.49-5.71,1.97h0Zm-12.09-36.22a.95.95,0,0,0-.64.32c-.48.47-1.18,1.9-.55,6.18a74.185,74.185,0,0,0,13.63,28.55l4.03-1.39c-1.75-4.17-6.3-15.44-5.13-17.28l.15-.24h.29c.62.03,15.22.59,24.48,7.16.04.03,2.83,1.92,13.99-2.06h.04c.18-.06,18.14-4.89,20.68-9.82a1.934,1.934,0,0,0,.16-1.61c-.03-.08-2.63-6.8-17.11-4.89-.61.06-14.67,1.5-20.26-.88l-.1-.05-3.19-2.28c-6.51,5.96-16.04,3.93-16.45,3.84l-14.02-5.56h0Z" fill="#002346"/>
        </g>
        <g id="Group_5" data-name="Group 5">
          <path id="Path_10" data-name="Path 10" d="M338.84,571.07a55.843,55.843,0,0,1-9.31,4.25,155.317,155.317,0,0,1-20.43,5.66l-26.73-52.77c-.62-1-1.26-2.07-1.93-3.19-13.05-22.08-32.69-64.71-32.69-64.71-.17-.37-.34-.75-.52-1.12-22.4-48.27-26.53-47.11-26.53-47.11-6.22,48.07-21.68,98-21.68,98l-4,71.6q-.06.345-.15.69c-4.4,18.54-31.95,7.88-31.95,7.88l-1.85-63.53c-1.84-26.72,2.36-45,2.36-45a32.182,32.182,0,0,0,1.2-3.28,76.4,76.4,0,0,0,2.66-16.38l-1.34-99.66c-.5-30,7.11-38.2,7.22-38.32h0l33.03-16.65.8.33.42.17c29.8,12.05,36.41-4.05,36.84-5.18v-.06c2.34,10.18,5,20.55,7.91,30.89v.08c1.77,6.32,3.62,12.63,5.51,18.87l.09.29c18.52,60.88,41.67,115.44,41.67,115.44l39,88.91c5.28,10.2.4,13.9.4,13.9h0Z" fill="#bbb"/>
          <path id="Path_11" data-name="Path 11" d="M178.76,593.82a49.952,49.952,0,0,1-16.02-3.1l-.31-.12-1.86-63.86c-1.82-26.47,2.33-44.94,2.37-45.13a34.429,34.429,0,0,0,1.21-3.31,76.326,76.326,0,0,0,2.64-16.26l-1.34-99.63c-.5-29.79,7.03-38.32,7.35-38.66l.14-.11,33.23-16.75,1.43.59c11.88,4.8,21.41,5.71,28.33,2.69a14.708,14.708,0,0,0,7.82-7.5v-4.31l.99,4.24c2.31,10.07,4.97,20.45,7.9,30.87l.02.14c1.66,5.93,3.51,12.27,5.49,18.8l.09.29c18.3,60.16,41.42,114.85,41.65,115.39l39,88.9c5.4,10.42.46,14.34.24,14.5l-.05.04a57.193,57.193,0,0,1-9.39,4.29,156.385,156.385,0,0,1-20.5,5.68l-.37.08-.17-.34-26.73-52.77c-.58-.93-1.2-1.97-1.85-3.05l-.07-.11c-12.92-21.85-32.52-64.33-32.72-64.76l-.12-.25c-.13-.29-.26-.57-.4-.86-17.99-38.77-24.14-45.45-25.67-46.6-6.12,46.62-20.98,95.37-21.59,97.36l-4,71.54a6.756,6.756,0,0,1-.17.79,13.374,13.374,0,0,1-6.87,9.25,20.959,20.959,0,0,1-9.73,2.07l.03-.03Zm-15.35-3.92c2.24.81,16.07,5.46,24.61.96a12.475,12.475,0,0,0,6.36-8.6,5.175,5.175,0,0,0,.14-.66l4-71.6.02-.06c.15-.5,15.52-50.44,21.66-97.92l.04-.33.32-.09c2.15-.61,10.47,11.51,27.12,47.38.14.28.27.58.41.87l.12.25c.2.43,19.78,42.86,32.67,64.66l.06.11c.64,1.08,1.26,2.11,1.86,3.07l26.58,52.47a155.413,155.413,0,0,0,19.99-5.56,55.193,55.193,0,0,0,9.19-4.19c.38-.31,4.3-3.86-.56-13.25l-39.01-88.94c-.23-.55-23.38-55.29-41.69-115.5l-.09-.29c-1.98-6.54-3.84-12.89-5.51-18.88l-.02-.13c-2.78-9.88-5.33-19.79-7.57-29.42a16.04,16.04,0,0,1-7.77,6.83c-7.17,3.13-16.97,2.23-29.1-2.68l-1.01-.41-32.74,16.5c-.75.87-7.5,9.53-7.03,37.91l1.34,99.66a76.673,76.673,0,0,1-2.68,16.52c-.35,1.13-.76,2.25-1.22,3.34,0,.1-4.13,18.44-2.32,44.77l1.84,63.21h0Z" fill="#002346"/>
        </g>
        <g id="Group_6" data-name="Group 6">
          <path id="Path_12" data-name="Path 12" d="M209.87,310.52s26.14,9.06,34.45-7.88l2.09-39.29-10.76-62h-5.71l-25.38,1,18,54.12-12.69,54.05h0Z" fill="#e6e6e6"/>
          <path id="Path_13" data-name="Path 13" d="M224.7,313.39a51.906,51.906,0,0,1-14.99-2.4l-.43-.15.1-.44,12.66-53.91-18.17-54.62,26.05-1.03h6.15l.07.41,10.77,62.06-2.14,39.54c-4.11,8.38-12.52,10.53-20.07,10.53h0Zm-14.23-3.2c3.39,1.06,25.87,7.39,33.36-7.68l2.08-39.13-10.68-61.53h-5.29l-24.7.97,17.83,53.62-.03.14-12.58,53.6h0Z" fill="#002346"/>
        </g>
        <g id="Group_7" data-name="Group 7">
          <path id="Path_14" data-name="Path 14" d="M249.04,165.81s1.07,21.57,7.12,28.8c0,0,13.61,12.27,5.54,26.55,0,0-10.75,16.14,1.52,23.87,0,0-7.5,1.65-12.74-8.92l-24.07-44.19v-8.23l22.63-17.88h0Z" fill="#002346"/>
          <path id="Path_15" data-name="Path 15" d="M262.15,245.61c-2.4,0-8.01-.98-12.12-9.28l-24.12-44.28v-8.6l.19-.15,23.39-18.48.05.97c0,.21,1.13,21.49,7,28.5.09.07,13.76,12.66,5.59,27.12-.08.11-5.58,8.5-4.01,15.84a11.336,11.336,0,0,0,5.36,7.36l1.03.65-1.19.26a6.579,6.579,0,0,1-1.17.09h0Zm-35.24-53.82,24.01,44.08c3.74,7.54,8.54,8.69,10.85,8.76a12.041,12.041,0,0,1-4.62-7.18c-1.66-7.75,3.9-16.21,4.14-16.57,7.75-13.73-5.33-25.78-5.46-25.9-5.47-6.53-6.94-23.86-7.23-28.18l-21.69,17.14v7.86h0Z" fill="#002346"/>
        </g>
        <g id="Group_8" data-name="Group 8">
          <path id="Path_16" data-name="Path 16" d="M249.37,145.58v19.57c0,12.08-8.51,21.87-19,21.87a16.347,16.347,0,0,1-3.97-.48c-8.59-2.1-15.03-10.88-15.03-21.39V145.58c0-12.08,8.51-21.87,19-21.87a17.772,17.772,0,0,1,13.43,6.41,23.549,23.549,0,0,1,5.57,15.46h0Z" fill="#f2b3c1"/>
          <path id="Path_17" data-name="Path 17" d="M230.37,187.52a16.782,16.782,0,0,1-4.09-.5c-8.93-2.18-15.41-11.38-15.41-21.87V145.58c0-12.34,8.75-22.37,19.5-22.37a18.192,18.192,0,0,1,13.81,6.58,23.941,23.941,0,0,1,5.69,15.79v19.57c0,12.34-8.75,22.37-19.5,22.37h0Zm0-63.32c-10.2,0-18.5,9.59-18.5,21.37v19.57c0,10.04,6.16,18.83,14.65,20.9a15.857,15.857,0,0,0,3.85.47c10.2,0,18.5-9.59,18.5-21.37V145.57a22.9,22.9,0,0,0-5.45-15.13A17.208,17.208,0,0,0,230.37,124.2Z" fill="#002346"/>
        </g>
        <g id="Group_9" data-name="Group 9">
          <path id="Path_18" data-name="Path 18" d="M229.94,201.33l-.83.05v.02l-1.42.06-9.1.42-11.48.52c-3.22-7.62-2.55-13-2.55-13,2.86,0,2.52-28.07,2.52-28.07l4.29-.14v6.83A19,19,0,0,0,226.4,186.6v5.29a10.64,10.64,0,0,1,.7,1.47c.48,1.02.93,2.05,1.33,3.1a43.526,43.526,0,0,1,1.51,4.87h0Z" fill="#f2b3c1"/>
          <path id="Path_19" data-name="Path 19" d="M206.79,202.92l-.14-.32c-3.23-7.66-2.61-13.03-2.58-13.26l.05-.44h.44c1.44-.59,2.18-14.77,2.02-27.56v-.49l5.29-.17v7.35a18.562,18.562,0,0,0,14.63,18.09l.4.08v5.56a10.722,10.722,0,0,1,.66,1.42c.52,1.09.96,2.12,1.33,3.11a45.052,45.052,0,0,1,1.53,4.93l.14.58-2.86.17-20.93.96h.02Zm-1.75-13.15a28.441,28.441,0,0,0,2.41,12.11l21.87-1.02a41.787,41.787,0,0,0-1.34-4.23c-.37-.96-.8-1.96-1.31-3.06a10.263,10.263,0,0,0-.68-1.43l-.07-.12v-5.03a19.576,19.576,0,0,1-15.03-18.98V161.7l-3.29.11c.04,4.22.12,25.32-2.28,27.75a1.279,1.279,0,0,1-.28.21h0Z" fill="#002346"/>
        </g>
        <g id="Group_10" data-name="Group 10">
          <path id="Path_20" data-name="Path 20" d="M249.27,138.14a15.067,15.067,0,0,1-4.31,3.84c-7.89,4.57-16.37-2-16.37-2-.5,5.38-9.91,13.78-9.91,13.78-4,4.87-1,12.61-1,12.61a11.684,11.684,0,0,1,1,3.15c1.14,6.77-4.19,12-4.19,12a15.066,15.066,0,0,0-2.69,12.77c-7.06-8.06,0-18.65,0-18.65,3.86-7.23-4.72-9.52-4.72-9.52l-.48,13.06c-.49,10.43-2,10.24-2,10.24l-2.18.34L185.7,267.82c-7.65,3.11-11.85-2.27-11.85-2.27,6-1.68,4-9.91,4-9.91-3.53,6.21-12.1,7.56-12.1,7.56-33.44,2.52-30.25-14.62-30.25-14.62,20.5,10.08,16.8-18.49,16.8-18.49-1.34-16.64,9.45-19,9.45-19l9.55-22.14a23.793,23.793,0,0,0,9.07-20c-1.68-20.67,8.22-24.64,8.22-24.64s.69-22.25,21-28.3l.44-.13c19.94-5.83,22.92.8,22.92.8l6.22,6.55c1.57,2.22,4.31,2.51,6.46,2.32a4,4,0,0,1,4.23,3.14c1.34,6.12-.59,9.45-.59,9.45h0Z" fill="#002346"/>
          <path id="Path_21" data-name="Path 21" d="M181.12,269.28a10.27,10.27,0,0,1-7.66-3.42l-.46-.59.72-.2c4.12-1.15,4.12-5.81,3.85-8.07-3.9,5.4-11.4,6.64-11.74,6.69-13.86,1.05-23.23-1.07-27.91-6.29a11.109,11.109,0,0,1-2.91-8.91l.12-.65.59.29c5.06,2.49,9.01,2.77,11.73.82,6.13-4.39,4.37-18.65,4.35-18.8-1.24-15.45,7.91-18.97,9.58-19.48l9.5-22.04.1-.08a23.324,23.324,0,0,0,8.88-19.58c-1.55-19.02,6.54-24.14,8.24-24.99.19-2.75,2.24-22.76,21.34-28.45l.44-.13c19.14-5.59,23.03.16,23.47.99l6.17,6.5c1.5,2.11,4.12,2.34,6.05,2.17a4.505,4.505,0,0,1,4.76,3.53c1.37,6.24-.56,9.66-.65,9.81l-.04.05a15.642,15.642,0,0,1-4.45,3.97c-6.79,3.93-14.06-.13-16.26-1.57-1.24,5.47-9.57,12.96-9.94,13.29-3.71,4.53-.9,11.98-.87,12.06a11.972,11.972,0,0,1,1.03,3.25c1.17,6.95-4.11,12.22-4.33,12.44a14.484,14.484,0,0,0-2.56,12.29l.49,1.99-1.35-1.54c-7.23-8.25-.11-19.15-.04-19.26a5.655,5.655,0,0,0,.56-4.97c-.89-2.07-3.26-3.16-4.38-3.58l-.46,12.39c-.2,4.2-.7,9.44-1.98,10.51a.832.832,0,0,1-.48.21l-1.81.28-16.7,77.98-.25.1a12.6,12.6,0,0,1-4.77,1h.03Zm-6.38-3.52c1.25,1.21,4.85,3.87,10.53,1.68l16.74-78.13,2.49-.39c.17-.16,1.22-1.44,1.61-9.77l.5-13.68.61.16c.17.05,4.27,1.17,5.65,4.35a6.616,6.616,0,0,1-.61,5.89c-.09.13-5.88,9.01-1.29,16.43a15.508,15.508,0,0,1,3.15-11.09c.1-.1,5.18-5.19,4.09-11.61a11.554,11.554,0,0,0-.96-3.02c-.14-.36-3.07-8.11,1.06-13.14.15-.14,9.32-8.39,9.8-13.51l.08-.91.72.56c.08.06,8.32,6.31,15.81,1.96a14.421,14.421,0,0,0,4.14-3.68c.16-.3,1.74-3.5.52-9.07a3.513,3.513,0,0,0-3.7-2.75c-3.15.28-5.54-.6-6.91-2.53l-6.27-6.63c-.03-.06-3.18-6.12-22.32-.52l-.44.13c-19.72,5.87-20.63,27.62-20.64,27.84v.32l-.31.12c-.1.04-9.53,4.14-7.91,24.14a24.324,24.324,0,0,1-9.16,20.35l-9.6,22.26-.25.06c-.42.09-10.35,2.5-9.06,18.47.08.59,1.86,14.98-4.76,19.71-2.92,2.09-6.99,1.95-12.11-.42a10.421,10.421,0,0,0,2.75,7.41c3.07,3.41,10.25,7.21,27.04,5.95.04,0,8.34-1.39,11.7-7.31l.62-1.1.3,1.23c.02.08,1.88,8.02-3.6,10.25h0Z" fill="#002346"/>
        </g>
        <g id="Group_11" data-name="Group 11">
          <path id="Path_22" data-name="Path 22" d="M230.11,266.88c-.51,5.71-9.25,23.69-9.25,23.69-1.93,4.03-3.66,8.16-5.18,12.36-6.13,17.06-5.91,28.15-5.91,28.15l-20,.67c-23.36,0-24.7-9.92-24.7-9.92l8-14.92c2.09-3.9,4.38-7.69,6.64-11.5,3.33-5.63,4.96-12.24,5.79-17.36a39.074,39.074,0,0,0-.3-13.47c-1.29-6.64-1.63-10.63-1.63-10.63-2-33.45-22.85-43.2-22.85-43.2-22-9.74-41.18-35.63-41.18-35.63-7.97-12.82,1.32-17.75,7.9-19.57a78.89,78.89,0,0,0,13.82-5.15L162.4,140l.2-.17a5.213,5.213,0,0,1,8.15,2.37l5.77,16.29c.84,5.88-5.89,5-5.89,5a14.543,14.543,0,0,0-9.07,4.37,8.677,8.677,0,0,1-1.74,1.89,16.515,16.515,0,0,1-6.22,2.87.3.3,0,0,0-.12.53c11.64,9.54,20.68,13.29,26.91,14.6,6.64,1.42,10.08.1,10.08.1l8.58,9.24,16.63,32.77,14.44,37.03h-.01Z" fill="#e46769"/>
          <path id="Path_23" data-name="Path 23" d="M189.79,332.25c-23.54,0-25.15-9.93-25.21-10.35l-.02-.16.08-.14,8-14.92c1.78-3.31,3.73-6.6,5.61-9.77l1.04-1.75a49.4,49.4,0,0,0,5.73-17.19,38.531,38.531,0,0,0-.3-13.29c-1.28-6.59-1.63-10.64-1.64-10.68-1.96-32.75-22.36-42.69-22.56-42.79-21.86-9.68-41.18-35.52-41.37-35.78-3.05-4.9-3.9-9.12-2.55-12.57,1.74-4.46,6.79-6.69,10.72-7.78a78.982,78.982,0,0,0,13.73-5.11l21.08-10.37.15-.13a5.732,5.732,0,0,1,8.04.93,5.84,5.84,0,0,1,.91,1.66L177,158.35a4.646,4.646,0,0,1-1.05,4.22c-1.74,1.76-4.83,1.5-5.32,1.45a14.053,14.053,0,0,0-8.71,4.21,8.308,8.308,0,0,1-1.79,1.93,17.219,17.219,0,0,1-6.03,2.88c11.89,9.68,20.9,13.09,26.38,14.25,6.38,1.37,9.77.13,9.8.12l.31-.12,8.89,9.6,16.63,32.77,14.5,37.18v.12c-.52,5.74-8.95,23.13-9.31,23.86a131.6,131.6,0,0,0-5.16,12.31c-6.02,16.76-5.88,27.86-5.88,27.97v.49l-20.48.69v-.03Zm-24.18-10.34c.3,1.19,3.16,9.34,24.17,9.34l19.5-.65c.04-2.35.56-12.88,5.94-27.84,1.52-4.21,3.27-8.38,5.2-12.41.09-.18,8.59-17.72,9.19-23.4l-14.4-36.92-16.58-32.66-8.32-8.96c-1.02.3-4.4,1.02-10.03-.18s-14.91-4.7-27.12-14.7a.784.784,0,0,1-.27-.8.8.8,0,0,1,.6-.6,15.953,15.953,0,0,0,6.04-2.79,7.818,7.818,0,0,0,1.62-1.77,15.077,15.077,0,0,1,9.44-4.59h.12s3.04.37,4.54-1.15a3.7,3.7,0,0,0,.79-3.28l-5.75-16.19a4.7,4.7,0,0,0-7.37-2.14l-.29.23-21.14,10.4a79.015,79.015,0,0,1-13.9,5.18c-3.71,1.03-8.47,3.11-10.06,7.18-1.23,3.14-.4,7.06,2.45,11.64.17.22,19.33,25.86,40.96,35.44.22.1,21.15,10.27,23.15,43.63,0,.03.35,4.03,1.62,10.56a39.559,39.559,0,0,1,.3,13.64,50.5,50.5,0,0,1-5.85,17.54l-1.04,1.75c-1.88,3.17-3.83,6.44-5.59,9.73l-7.91,14.76h0Z" fill="#002346"/>
        </g>
        <g id="Group_12" data-name="Group 12">
          <path id="Path_24" data-name="Path 24" d="M247.08,333.26a208.863,208.863,0,0,0-4.54-40.5s-5.37-24.2-3-34.12l2.18-21.34-6.21-21-2.53-12.6-2.32-9.59s17.11,5.89,19.63,18.32l7.4,38.83s.84,13.44,4.87,8.57l14.29-15s11.26,8.4,13.78,13.78a12.927,12.927,0,0,1-2.52,11.6l-21.51,20.5s-7.23,6.05-17-6.39h0c.03.14,5.67,25.4,11.14,38.22a4.494,4.494,0,0,1-.63,4.58c-1.68,2.11-5.29,4.8-13.03,6.14h0Z" fill="#e46769"/>
          <path id="Path_25" data-name="Path 25" d="M246.59,333.85v-.59a209.407,209.407,0,0,0-4.54-40.4c-.22-.99-5.37-24.42-3-34.34l2.16-21.18-6.18-20.91-2.54-12.64-2.53-10.46.86.3c.71.24,17.41,6.13,19.96,18.69l7.4,38.84c.23,3.58,1.17,8.74,2.56,9.2.46.15,1.04-.38,1.43-.85l14.62-15.35.36.27c.46.35,11.39,8.54,13.93,13.97a13.458,13.458,0,0,1-2.59,12.13l-21.55,20.54a8.417,8.417,0,0,1-6.06,1.56c-3.45-.36-6.92-2.5-10.33-6.38,1.47,6.3,6.11,25.45,10.64,36.09a4.97,4.97,0,0,1-.7,5.09c-1.69,2.12-5.38,4.94-13.33,6.32l-.58.1h.01ZM231.37,194.91l2.1,8.67L236,216.2l6.23,21.05v.1l-2.19,21.34c-2.33,9.76,2.94,33.72,2.99,33.96a209.458,209.458,0,0,1,4.54,40.01c7.25-1.35,10.61-3.92,12.15-5.86a3.976,3.976,0,0,0,.56-4.07c-5.41-12.68-10.94-37.27-11.17-38.31l-.49-2.21L250,284c3.66,4.67,7.35,7.23,10.97,7.62a7.555,7.555,0,0,0,5.32-1.31l21.49-20.48a12.429,12.429,0,0,0,2.38-11.11c-2.16-4.6-11.32-11.77-13.24-13.24l-13.98,14.68c-.83,1.01-1.68,1.4-2.49,1.14-2.54-.83-3.15-8.5-3.25-10.02l-7.39-38.77c-2.11-10.4-14.94-16.21-18.43-17.61h-.01Z" fill="#002346"/>
        </g>
        <g id="Group_13" data-name="Group 13">
          <path id="Path_26" data-name="Path 26" d="M184.06,295.28s8.74,7.56,26.72,7.39c0,0-5.88,14.46-21.51,8.24C189.27,310.91,182.2,309.06,184.06,295.28Z" fill="#fff"/>
          <path id="Path_27" data-name="Path 27" d="M196.64,312.96a20.354,20.354,0,0,1-7.55-1.58c-.25-.06-7.42-2.1-5.52-16.16l.12-.91.7.6c.09.07,8.8,7.41,26.39,7.27h.75l-.28.69c-.05.12-4.25,10.1-14.6,10.1h0Zm-12.19-16.75c-1.38,12.33,4.69,14.14,4.95,14.21,13.24,5.27,19.21-4.47,20.6-7.25C195.19,303.13,186.85,297.96,184.45,296.21Z" fill="#002346"/>
        </g>
        <g id="Group_14" data-name="Group 14">
          <path id="Path_28" data-name="Path 28" d="M185.65,606.8h0a15.839,15.839,0,0,1-.43-4.8v-9.58c-.42.13-8.71,2.74-21.24-1.93l-.12,8.72h0l.12-8.73-.26,17.72s10.25,8.74,15.63,11.93c0,0,7.06,2.2,12.78-1,0,0-4.93-5.7-6.48-12.33h0Z" fill="#f2b3c1"/>
          <path id="Path_29" data-name="Path 29" d="M184.81,621.38a20.631,20.631,0,0,1-5.61-.77l-.11-.05c-5.36-3.18-15.28-11.62-15.7-11.98l-.18-.15.27-18.65.67.25c11.97,4.46,20.03,2.2,20.91,1.92l.65-.2v10.26a14.719,14.719,0,0,0,.32,4.3l.09.39c1.5,6.44,6.32,12.06,6.37,12.12l.4.46-.54.3a15.5,15.5,0,0,1-7.56,1.81h.02Zm-5.26-1.72c.63.18,6.69,1.82,11.8-.69a33.233,33.233,0,0,1-6.09-11.67h0l-.09-.38a16.189,16.189,0,0,1-.44-4.95v-8.89c-2.29.56-9.8,1.85-20.25-1.87l-.25,16.77c1.38,1.17,10.42,8.77,15.33,11.7v-.02Z" fill="#002346"/>
        </g>
        <g id="Group_15" data-name="Group 15">
          <path id="Path_30" data-name="Path 30" d="M226.58,644.34l-26.72,1c-9.75-1-12.94-5.88-12.94-5.88a59.9,59.9,0,0,0-17.65-11.43v18.32h-5.71l-3.7-20.17c-2.69-17.14,3.86-18,3.86-18s10.25,8.74,15.63,11.93c0,0,7.06,2.19,12.78-1,2,4.88,13.1,8.91,13.1,8.91,13.79,3.19,20,7.56,20,7.56,6.73,5.9,1.35,8.76,1.35,8.76h0Z" fill="#e46769"/>
          <path id="Path_31" data-name="Path 31" d="M169.77,646.85h-6.63l-3.77-20.58c-1.56-9.97-.02-14.56,1.55-16.66a4.412,4.412,0,0,1,2.73-1.92l.22-.03.17.14c.1.09,10.21,8.69,15.51,11.85.66.19,7.13,1.93,12.34-.97l.49-.27.21.52c1.89,4.62,12.7,8.59,12.81,8.63,13.67,3.16,19.86,7.44,20.12,7.62,2.61,2.28,3.8,4.41,3.57,6.34a4.547,4.547,0,0,1-2.28,3.27l-.1.05-26.83,1c-9.5-.97-12.94-5.48-13.34-6.05a59.166,59.166,0,0,0-16.77-11v18.06h0Zm-5.79-1h4.79V627.28l.69.29a60.068,60.068,0,0,1,17.8,11.53l.08.09s3.21,4.7,12.57,5.66l26.52-1a3.54,3.54,0,0,0,1.66-2.46c.18-1.56-.93-3.44-3.2-5.43-.02-.01-6.27-4.32-19.78-7.45-.5-.18-10.68-3.92-13.22-8.71-5.74,2.89-12.41.88-12.7.79l-.11-.05c-5.01-2.97-14.02-10.56-15.5-11.81a4.1,4.1,0,0,0-1.91,1.54c-1.43,1.96-2.82,6.3-1.33,15.84l3.62,19.75h.02Z" fill="#002346"/>
        </g>
        <g id="Group_16" data-name="Group 16">
          <path id="Path_32" data-name="Path 32" d="M317.76,208.55a.41.41,0,0,1,.52.26.387.387,0,0,1,0,.26,14.747,14.747,0,0,1-1.43,3.19,7.429,7.429,0,0,1-4.39,3.53,16.419,16.419,0,0,1-3.7,12.43l-18.31,29.91s-2.57-4.22-11-11.35l22.8-24.1s0-13.11,7.56-13.11a58.99,58.99,0,0,0,7.95-1.02h0Z" fill="#f2b3c1"/>
          <path id="Path_33" data-name="Path 33" d="M290.45,259.09l-.43-.7s-2.65-4.25-10.9-11.23l-.4-.34,23.03-24.34c.03-1.75.53-13.41,8.06-13.41a56.489,56.489,0,0,0,7.83-1.01.925.925,0,0,1,1.12.58.957.957,0,0,1,0,.58,14.3,14.3,0,0,1-1.48,3.29,7.909,7.909,0,0,1-4.28,3.62,16.968,16.968,0,0,1-3.86,12.4l-18.69,30.55h0Zm-10.27-12.34c6.31,5.38,9.23,9.04,10.25,10.47l17.91-29.25a16.031,16.031,0,0,0,3.63-12.11l-.05-.42.4-.12a6.882,6.882,0,0,0,4.09-3.29,13.845,13.845,0,0,0,1.35-2.96,60.388,60.388,0,0,1-7.92,1.01c-7,0-7.09,12.48-7.09,12.61v.2Z" fill="#002346"/>
        </g>
        <g id="Group_17" data-name="Group 17">
          <path id="Path_34" data-name="Path 34" d="M220.73,115.13a14.06,14.06,0,0,1-6.42,4.86s-8.1,2.7-9.42,8.95a16.622,16.622,0,0,1-1.2,3.63c-1.39,2.89-4.24,7.52-8.9,9.72a13.039,13.039,0,0,1-3.65,1.1,6.871,6.871,0,0,0-3.54,1.6l-12,10.63-4.84-13.43a4.108,4.108,0,0,0-1.52-2.2l1.8-.86,11.79-5.62a9.486,9.486,0,0,0,3.7-3.15l7.28-10.51a3.868,3.868,0,0,1,.91-.94,48.731,48.731,0,0,1,13.74-7s6.89-2.69,5.21,1.18l5.81-.34a1.486,1.486,0,0,1,1.54,1.43,1.614,1.614,0,0,1-.29.95h0Z" fill="#f2b3c1"/>
          <path id="Path_35" data-name="Path 35" d="M175.38,156.48l-5.09-14.12a3.666,3.666,0,0,0-1.35-1.97l-.67-.49,14.34-6.84a8.938,8.938,0,0,0,3.5-2.98l7.28-10.51a3.991,3.991,0,0,1,1.03-1.06,49.319,49.319,0,0,1,13.88-7.07c.72-.28,4.51-1.68,5.74-.4a1.557,1.557,0,0,1,.32,1.51l5.08-.3a1.983,1.983,0,0,1,1.44.53,1.921,1.921,0,0,1,.63,1.38,1.967,1.967,0,0,1-.39,1.26,14.557,14.557,0,0,1-6.65,5.03c-.09.03-7.86,2.69-9.11,8.59a16.755,16.755,0,0,1-1.24,3.74c-1.31,2.73-4.25,7.65-9.14,9.96a13.273,13.273,0,0,1-3.79,1.14,6.385,6.385,0,0,0-3.29,1.48l-12.55,11.12h.03Zm-5.24-16.37a4.65,4.65,0,0,1,1.11,1.94l4.58,12.7,11.45-10.14a7.346,7.346,0,0,1,3.8-1.72,12.478,12.478,0,0,0,3.51-1.06c4.62-2.18,7.41-6.88,8.66-9.48a16.059,16.059,0,0,0,1.16-3.51c1.37-6.46,9.41-9.21,9.75-9.32a13.42,13.42,0,0,0,6.17-4.68h0a1.1,1.1,0,0,0,.2-.63.937.937,0,0,0-.32-.69.979.979,0,0,0-.71-.26l-6.61.39.32-.75c.14-.33.35-.92.12-1.16-.56-.59-3.13.04-4.69.65a48.07,48.07,0,0,0-13.63,6.94,3.372,3.372,0,0,0-.79.81l-7.28,10.52a10.034,10.034,0,0,1-3.9,3.32l-12.91,6.15v-.02Z" fill="#002346"/>
        </g>
        <path id="Path_36" data-name="Path 36" d="M204.06,121.33a.518.518,0,0,1-.46-.29.5.5,0,0,1,.25-.66l14.96-6.72a.5.5,0,1,1,.41.91l-14.96,6.72a.522.522,0,0,1-.21.04h.01Z" fill="#002346"/>
        <g id="Group_18" data-name="Group 18">
          <path id="Path_37" data-name="Path 37" d="M749.29,397.67V629.1H721.95v-200a10.505,10.505,0,0,0-10.49-10.51H435.04a7,7,0,0,0-7,7h0V630.43H404.83V408.27a21.108,21.108,0,0,1,21.11-21.11H738.78a10.505,10.505,0,0,1,10.51,10.49v.02h0Z" fill="#fff"/>
          <path id="Path_38" data-name="Path 38" d="M428.54,630.93H404.33V408.27a21.629,21.629,0,0,1,21.61-21.61H738.79a11.017,11.017,0,0,1,11,10.99V629.6H721.45V429.1a10.016,10.016,0,0,0-9.99-10.01H435.04a6.513,6.513,0,0,0-6.5,6.5V630.93h0Zm-23.21-1h22.21V425.59a7.5,7.5,0,0,1,7.5-7.5h276.4a11.017,11.017,0,0,1,11.01,11.01V628.6h26.34V397.65a10.008,10.008,0,0,0-10-9.99H425.94a20.639,20.639,0,0,0-20.61,20.61V629.93h0Z" fill="#002346"/>
        </g>
        <g id="Group_19" data-name="Group 19">
          <path id="Path_39" data-name="Path 39" d="M542.89,418.6V630.43H428.07V425.57a7,7,0,0,1,7-7Z" fill="#e6e6e6"/>
          <path id="Path_40" data-name="Path 40" d="M543.39,630.93H427.57V425.57a7.5,7.5,0,0,1,7.5-7.5l108.32.03Zm-114.82-1H542.39V419.1l-107.32-.03a6.513,6.513,0,0,0-6.5,6.5Z" fill="#002346"/>
        </g>
        <g id="Group_20" data-name="Group 20">
          <path id="Path_41" data-name="Path 41" d="M205.2,188.43a22.158,22.158,0,0,0-9.94-2.12,9.134,9.134,0,0,0-8,5.92c-1.64,4.38-2,11.05,8.43,15,0,0-5.54,5.55-.84,10.42l23.87,30.42s10.42,12.44,9,26.5c0,0,9.34-3.3,1.94-27,0,0-7.87-24.21-18.19-38a35.092,35.092,0,0,1-6.14-13.06,25.32,25.32,0,0,1-.71-7.1,1.537,1.537,0,0,0,.58-.98h0Z" fill="#fff"/>
          <path id="Path_42" data-name="Path 42" d="M227.14,275.3l.08-.78c1.38-13.68-8.78-26.01-8.89-26.13l-23.88-30.43c-4.06-4.2-.91-8.93.39-10.52-10.41-4.25-9.54-11.43-8.05-15.38a9.635,9.635,0,0,1,8.44-6.24,22.725,22.725,0,0,1,10.18,2.17l.34.16-.06.37a2.087,2.087,0,0,1-.58,1.13,24.762,24.762,0,0,0,.7,6.75,34.663,34.663,0,0,0,6.05,12.88c10.25,13.7,18.19,37.9,18.27,38.15,7.46,23.89-1.85,27.48-2.25,27.63l-.74.26v-.02Zm-31.43-88.5h-.44a8.634,8.634,0,0,0-7.54,5.59c-1.69,4.51-1.64,10.65,8.14,14.36l.72.27-.54.55c-.21.21-5.13,5.26-.84,9.72l23.9,30.46c.09.11,10.05,12.18,9.18,25.89,1.96-1.48,6.73-7.21.89-25.93-.08-.24-7.96-24.29-18.11-37.85a35.676,35.676,0,0,1-6.23-13.24,25.179,25.179,0,0,1-.72-7.24v-.23l.19-.14a1.026,1.026,0,0,0,.27-.32,21.877,21.877,0,0,0-8.87-1.89h0Z" fill="#002346"/>
        </g>
        <g id="Group_21" data-name="Group 21">
          <path id="Path_43" data-name="Path 43" d="M226.41,191.92s28.4,12.61,10.25,20.34c0,0-2,.5.84,1.85,0,0,8.24,3.19,8.07,8.57,0,0,1.68,20.5-6.05,36,0-.04-4.87-52.14-13.11-66.76h0Z" fill="#fff"/>
          <path id="Path_44" data-name="Path 44" d="M239.02,260.8v-2.12c-.04-.47-4.96-52.17-13.04-66.51l-.74-1.32,1.38.61c.68.3,16.66,7.48,16.61,14.61-.02,2.62-2.16,4.86-6.36,6.65a1.049,1.049,0,0,0-.38.17,5.6,5.6,0,0,0,1.24.77c.32.12,8.53,3.37,8.36,9.04.02.15,1.6,20.76-6.1,36.21l-.95,1.9h-.02ZM227.54,193c6.95,14.38,11.4,54.66,12.31,63.81,6.7-14.98,5.24-33.9,5.23-34.1.16-5.02-7.67-8.11-7.75-8.14-1.34-.64-1.9-1.19-1.84-1.82.07-.7.89-.94,1.06-.98,3.73-1.59,5.67-3.52,5.68-5.71.04-5.36-10.83-11.17-14.68-13.06h0Z" fill="#002346"/>
        </g>
        <g id="Group_22" data-name="Group 22">
          <circle id="Ellipse_2" data-name="Ellipse 2" cx="24.75" cy="24.75" r="24.75" transform="translate(244.68 41.07)" fill="#e46769"/>
          <path id="Path_45" data-name="Path 45" d="M269.43,91.07a25.25,25.25,0,1,1,25.25-25.25A25.282,25.282,0,0,1,269.43,91.07Zm0-49.5a24.25,24.25,0,1,0,24.25,24.25A24.279,24.279,0,0,0,269.43,41.57Z" fill="#002346"/>
        </g>
        <path id="Path_46" data-name="Path 46" d="M250.31,97.94a15.392,15.392,0,0,1-10.45-3.63l-.77-.66,1-.2c.06,0,6.1-1.27,10.06-5a29.725,29.725,0,1,1,12.9,6.4,32.339,32.339,0,0,1-12.74,3.09h0Zm-9-3.75c7.45,5.58,18.27,1.22,21.49-.3l.16-.07h.17a28.526,28.526,0,1,0-11.93-5.77l.42.35-.38.39c-3.23,3.3-7.92,4.85-9.96,5.4h.03Z" fill="#002346"/>
        <path id="Path_47" data-name="Path 47" d="M279.85,77.86a.469.469,0,0,1-.35-.15L257.53,55.75a.5.5,0,0,1,.71-.71L280.21,77a.5.5,0,0,1,0,.71.5.5,0,0,1-.35.15h0Z" fill="#002346"/>
        <path id="Path_48" data-name="Path 48" d="M257.06,76.97a.493.493,0,0,1-.38-.18.505.505,0,0,1,.05-.71L280.35,55.9a.507.507,0,0,1,.66.77L257.39,76.85a.5.5,0,0,1-.33.12Z" fill="#002346"/>
        <path id="Path_49" data-name="Path 49" d="M415.11,158.1l-.64-.77a18.138,18.138,0,0,0,3.59-3.78l.84.56a18.878,18.878,0,0,1-3.79,3.99h0Zm4.91-10.34a13.349,13.349,0,0,0-5.69-11.7l.61-.81a14.28,14.28,0,0,1,6.08,12.55l-1-.04h0Z" fill="#002346"/>
        <g id="Group_23" data-name="Group 23">
          <path id="Path_50" data-name="Path 50" d="M405.5,164.43l-10.82-.54.07-1.09a13.194,13.194,0,0,1,.84-4.44,10.1,10.1,0,0,1,2-3,58.423,58.423,0,0,1,5.82-4.71c1.6-1.18,2.42-2.29,2.48-3.33a3.158,3.158,0,0,0-.81-2.47,3.979,3.979,0,0,0-2.75-1,4.549,4.549,0,0,0-3.41,1.17q-1.38,1.26-1.92,4.57l-11-1.93a15.087,15.087,0,0,1,4.95-9.55q4.065-3.51,12-3.1c4.13.2,7.42,1.24,9.87,3.08a10.777,10.777,0,0,1,4.69,9.58,9.017,9.017,0,0,1-1.56,4.6,23.313,23.313,0,0,1-5.74,5.2,14.614,14.614,0,0,0-3.8,3.47,7.588,7.588,0,0,0-.91,3.49h0Zm-11.3,2.31,11.54.64-.54,10.19-11.53-.66Z" fill="#e46769"/>
          <path id="Path_51" data-name="Path 51" d="M405.67,178.1l-12.53-.72.58-11.17,12.54.7Zm-11.48-1.66,10.53.6.49-9.19-10.54-.58-.48,9.17h0Zm11.8-11.48-11.84-.59.1-1.6a13.672,13.672,0,0,1,.87-4.58,10.648,10.648,0,0,1,2.11-3.17,60.5,60.5,0,0,1,5.89-4.77c1.45-1.07,2.22-2.07,2.27-2.95a2.7,2.7,0,0,0-.68-2.1,3.529,3.529,0,0,0-2.37-.84,4.1,4.1,0,0,0-3.09,1.04c-.83.76-1.42,2.2-1.76,4.28l-.08.5-11.96-2.1.05-.47a15.522,15.522,0,0,1,5.12-9.87c2.8-2.42,6.97-3.5,12.36-3.23,4.19.2,7.61,1.27,10.14,3.18a11.306,11.306,0,0,1,4.89,10.01,9.4,9.4,0,0,1-1.65,4.85,23.886,23.886,0,0,1-5.88,5.34,13.967,13.967,0,0,0-3.67,3.35,7.113,7.113,0,0,0-.81,3.19v.52h-.01Zm-10.79-1.53,9.81.49a7.97,7.97,0,0,1,.95-3.2,14.778,14.778,0,0,1,3.97-3.65,22.654,22.654,0,0,0,5.61-5.09,8.447,8.447,0,0,0,1.45-4.32,10.338,10.338,0,0,0-4.47-9.14,17.081,17.081,0,0,0-9.61-2.99c-5.13-.26-9.06.74-11.65,2.98a14.52,14.52,0,0,0-4.72,8.76l10.04,1.76a7.688,7.688,0,0,1,1.99-4.36,5.055,5.055,0,0,1,3.79-1.3,4.394,4.394,0,0,1,3.04,1.12,3.67,3.67,0,0,1,.98,2.9c-.07,1.19-.94,2.4-2.68,3.68a57.65,57.65,0,0,0-5.78,4.68,9.579,9.579,0,0,0-1.88,2.83,12.714,12.714,0,0,0-.8,4.25l-.04.61h0Z" fill="#002346"/>
        </g>
        <g id="Group_24" data-name="Group 24">
          <path id="Path_52" data-name="Path 52" d="M373.65,172.99l-7.57,3.74-.32-.76a10.55,10.55,0,0,1-1.11-3.36,7.608,7.608,0,0,1,.22-2.85,42.836,42.836,0,0,1,2.17-5.42c.64-1.41.77-2.48.4-3.17a2.512,2.512,0,0,0-1.53-1.41,3.055,3.055,0,0,0-2.25.37,3.557,3.557,0,0,0-1.89,2.08,6.072,6.072,0,0,0,.43,3.85l-8.23,2.85a11.783,11.783,0,0,1-.28-8.39q1.41-3.93,7-6.68a13.6,13.6,0,0,1,7.9-1.65,8.4,8.4,0,0,1,6.85,4.74,6.973,6.973,0,0,1,.68,3.73,18.091,18.091,0,0,1-1.92,5.77,11.621,11.621,0,0,0-1.29,3.84,5.893,5.893,0,0,0,.74,2.72h0Zm-6.84,5.88,8.11-4,3.53,7.15-8.11,4Z" fill="#e46769"/>
          <path id="Path_53" data-name="Path 53" d="M370.11,186.69l-3.97-8.05,9.01-4.44,3.97,8.05Zm-2.63-7.59,3.09,6.25,7.21-3.56-3.09-6.25Zm-1.65-1.68-.53-1.25a10.633,10.633,0,0,1-1.14-3.48,8.082,8.082,0,0,1,.23-3.06,44.545,44.545,0,0,1,2.2-5.51c.56-1.23.7-2.17.41-2.72a2.033,2.033,0,0,0-1.25-1.17,2.536,2.536,0,0,0-1.83.32,3.127,3.127,0,0,0-1.68,1.82,5.689,5.689,0,0,0,.41,3.48l.23.5-9.2,3.18-.18-.43a12.279,12.279,0,0,1-.29-8.75c.98-2.74,3.42-5.08,7.25-6.97a14.046,14.046,0,0,1,8.17-1.7,8.912,8.912,0,0,1,7.25,5.02,7.536,7.536,0,0,1,.73,3.99,18.292,18.292,0,0,1-1.98,5.96,11.2,11.2,0,0,0-1.24,3.68,5.516,5.516,0,0,0,.68,2.4l.26.46-8.52,4.21.02.02Zm-.59-18.23a3.614,3.614,0,0,1,.79.09,3.03,3.03,0,0,1,1.88,1.7c.43.8.3,2.01-.41,3.57a42.647,42.647,0,0,0-2.15,5.37,7.082,7.082,0,0,0-.2,2.64,10.087,10.087,0,0,0,1.05,3.18l.13.31,6.64-3.28a6.463,6.463,0,0,1-.57-2.48,12.17,12.17,0,0,1,1.35-4.09,17.351,17.351,0,0,0,1.87-5.61,6.548,6.548,0,0,0-.63-3.44,7.929,7.929,0,0,0-6.44-4.46,13.071,13.071,0,0,0-7.61,1.59c-3.61,1.78-5.88,3.93-6.77,6.41a11.241,11.241,0,0,0,.1,7.59l7.28-2.52a6.769,6.769,0,0,1-.26-3.65,4.087,4.087,0,0,1,2.17-2.43,3.4,3.4,0,0,1,1.78-.49h0Z" fill="#002346"/>
        </g>
        <path id="Path_57" data-name="Path 57" d="M570.2,146.74h24.76v6.37h-15.5v4.76h14.38v6.1H579.49v5.89h16v6.77H570.2V146.74h0Z" transform="translate(-65.198 9.135)" fill="#002346"/>
        <path id="Path_58" data-name="Path 58" d="M600.54,176.64v-29.9h15.4a22.239,22.239,0,0,1,6.55.74,6.812,6.812,0,0,1,3.65,2.72,8.421,8.421,0,0,1-2.09,11.72h-.01c-.16.12-.33.22-.5.33a11.331,11.331,0,0,1-3.24,1.17,8.56,8.56,0,0,1,2.4,1.1,8.8,8.8,0,0,1,1.48,1.57,10.009,10.009,0,0,1,1.3,1.86l4.47,8.66H619.51l-4.94-9.14a6.809,6.809,0,0,0-1.67-2.3,3.865,3.865,0,0,0-2.26-.69h-.82v12.13l-9.28.02h0Zm9.28-17.77h3.9a15.878,15.878,0,0,0,2.48-.43,2.479,2.479,0,0,0,1.5-.94,3,3,0,0,0-.33-4,5.644,5.644,0,0,0-3.45-.77h-4.06Z" transform="translate(-65.198 9.135)" fill="#002346"/>
        <path id="Path_59" data-name="Path 59" d="M633.03,176.64v-29.9h15.4a22.239,22.239,0,0,1,6.55.74,6.812,6.812,0,0,1,3.65,2.72,8.454,8.454,0,0,1-2.12,11.76l-.47.3a11.437,11.437,0,0,1-3.25,1.19,6.145,6.145,0,0,1,3.88,2.67,10.009,10.009,0,0,1,1.3,1.86l4.47,8.66H652l-4.94-9.14a6.809,6.809,0,0,0-1.67-2.3,3.865,3.865,0,0,0-2.26-.69h-.79v12.13h-9.31Zm9.31-17.78h3.86a15.541,15.541,0,0,0,2.44-.41,2.479,2.479,0,0,0,1.5-.94,3,3,0,0,0-.33-4,5.494,5.494,0,0,0-3.45-.77H642.3l.04,6.12h0Z" transform="translate(-65.198 9.135)" fill="#002346"/>
        <path id="Path_60" data-name="Path 60" d="M663.52,161.71q0-7.32,4.08-11.4t11.36-4.08c4.85,0,8.82,1.33,11.51,4s4.03,6.41,4,11.23a18.314,18.314,0,0,1-1.73,8.65,12.542,12.542,0,0,1-5.1,5.23,17.036,17.036,0,0,1-8.3,1.77,19.439,19.439,0,0,1-8.37-1.61,12.669,12.669,0,0,1-5.38-5.1,16.991,16.991,0,0,1-2.07-8.69h0Zm9.24,0c0,3,.57,5.19,1.69,6.51a6.363,6.363,0,0,0,8.99.21h0c.07-.07.14-.13.2-.2q1.635-1.95,1.64-7,0-4.215-1.71-6.17a5.807,5.807,0,0,0-4.62-1.94,5.6,5.6,0,0,0-4.48,2c-1.12,1.41-1.7,3.6-1.7,6.64l-.02-.04h.01Z" transform="translate(-65.198 9.135)" fill="#002346"/>
        <path id="Path_61" data-name="Path 61" d="M699.61,176.64v-29.9H715a22.239,22.239,0,0,1,6.55.74,6.812,6.812,0,0,1,3.65,2.72,8.17,8.17,0,0,1,1.39,4.84,7.992,7.992,0,0,1-4,7.22,11.375,11.375,0,0,1-3.24,1.19,8.56,8.56,0,0,1,2.4,1.1,9.18,9.18,0,0,1,1.48,1.57,10.3,10.3,0,0,1,1.29,1.86l4.48,8.66H718.58l-4.94-9.14a6.809,6.809,0,0,0-1.67-2.3,3.918,3.918,0,0,0-2.27-.69h-.81v12.13h-9.28Zm9.28-17.78h3.89a15.139,15.139,0,0,0,2.42-.43,2.479,2.479,0,0,0,1.5-.94,3,3,0,0,0-.34-4,5.494,5.494,0,0,0-3.45-.77h-4l-.02,6.14h0Z" transform="translate(-65.198 9.135)" fill="#002346"/>
        <path id="Path_72" data-name="Path 72" d="M201.92,117.97a.5.5,0,0,1-.47-.33.5.5,0,0,1,.29-.64l11.75-4.38a.5.5,0,0,1,.35.93l-11.75,4.38a.555.555,0,0,1-.17.03h0Z" fill="#002346"/>
        <path id="Path_73" data-name="Path 73" d="M153.47,173.64h-.04a56.751,56.751,0,0,1-15.76-3.65.5.5,0,0,1-.26-.66.5.5,0,0,1,.66-.26,55.706,55.706,0,0,0,15.44,3.57.494.494,0,0,1,.46.53.5.5,0,0,1-.5.46h0Z" fill="#002346"/>
        <path id="Path_74" data-name="Path 74" d="M249.6,284.82a.5.5,0,0,1-.5-.5l-.23-34.3a.5.5,0,0,1,.5-.5h0a.5.5,0,0,1,.5.5l.23,34.3a.5.5,0,0,1-.5.5Z" fill="#002346"/>
        <path id="Path_75" data-name="Path 75" d="M220.7,412.58h-.09a.5.5,0,0,1-.4-.58l9.96-52.65c.04-.16,3.2-12.23.07-17.01a.5.5,0,1,1,.83-.55c3.37,5.16.2,17.27.07,17.78l-9.95,52.62a.494.494,0,0,1-.49.41v-.02Z" fill="#002346"/>
      </g>
      <g id="Group_26" data-name="Group 26">
        <path id="Path_76" data-name="Path 76" d="M545.54,401.95H490.25a.878.878,0,0,1-.37-1.67l11.36-5.48a.856.856,0,0,1,.39,0h51a.881.881,0,0,1,.87.89.843.843,0,0,1-.33.67l-7.12,5.47a.773.773,0,0,1-.49.11h-.02Z" fill="#fff"/>
        <path id="Path_77" data-name="Path 77" d="M545.6,402.39H490.26a1.323,1.323,0,0,1-.57-2.51l11.46-5.51a1.141,1.141,0,0,1,.52,0h50.96a1.285,1.285,0,0,1,.93.4,1.328,1.328,0,0,1-.12,1.95l-7.13,5.48a1.44,1.44,0,0,1-.71.21v-.02Zm-.05-.88h.03a.442.442,0,0,0,.25-.06l7.07-5.44a.422.422,0,0,0,.16-.33.43.43,0,0,0-.12-.31.439.439,0,0,0-.31-.13H501.54a1.325,1.325,0,0,0-.16-.02l-11.3,5.45a.431.431,0,0,0-.25.39.437.437,0,0,0,.44.44h55.28Z" fill="#002346"/>
      </g>
      <g id="Group_27" data-name="Group 27">
        <rect id="Rectangle_1" data-name="Rectangle 1" width="10.17" height="38.73" transform="translate(519.16 360.28)" fill="#f2f2f2"/>
        <path id="Path_78" data-name="Path 78" d="M529.76,399.45H518.72V359.84h11.04Zm-10.17-.88h9.29V360.72h-9.29Z" fill="#002346"/>
      </g>
      <g id="Group_28" data-name="Group 28">
        <rect id="Rectangle_2" data-name="Rectangle 2" width="13.34" height="28.11" transform="translate(517.56 360.28)" fill="#fff"/>
        <path id="Path_79" data-name="Path 79" d="M531.34,388.84H517.12V359.85h14.22ZM518,387.96h12.46V360.73H518Z" fill="#002346"/>
      </g>
      <g id="Group_29" data-name="Group 29">
        <rect id="Rectangle_3" data-name="Rectangle 3" width="168.26" height="131.61" transform="translate(442.5 231.46)" fill="#e46769"/>
        <path id="Path_80" data-name="Path 80" d="M611.21,363.51H442.07V231.02H611.21Zm-168.26-.88H610.33V231.9H442.95Z" fill="#002346"/>
      </g>
      <g id="Group_30" data-name="Group 30">
        <rect id="Rectangle_4" data-name="Rectangle 4" width="150.27" height="117.54" transform="translate(451.49 238.49)" fill="#fff"/>
        <path id="Path_81" data-name="Path 81" d="M602.2,356.48H451.05V238.06H602.2Zm-150.27-.88H601.32V238.94H451.93Z" fill="#002346"/>
      </g>
      <path id="Path_82" data-name="Path 82" d="M562.17,293.95l-.87-1.04a24.336,24.336,0,0,0,4.86-5.12l1.14.76A25.77,25.77,0,0,1,562.17,293.95Zm6.65-14a18.047,18.047,0,0,0-7.7-15.84l.83-1.1A19.325,19.325,0,0,1,570.18,280l-1.35-.05Z" fill="#002346"/>
      <g id="Group_31" data-name="Group 31">
        <path id="Path_83" data-name="Path 83" d="M549.16,302.52l-14.65-.73.09-1.48a17.9,17.9,0,0,1,1.14-6.01,13.682,13.682,0,0,1,2.71-4.06,80.442,80.442,0,0,1,7.88-6.38c2.17-1.6,3.28-3.1,3.36-4.51a4.263,4.263,0,0,0-1.1-3.34,5.38,5.38,0,0,0-3.72-1.35,6.178,6.178,0,0,0-4.62,1.58c-1.25,1.14-2.11,3.2-2.6,6.19l-14.89-2.61a20.4,20.4,0,0,1,6.7-12.93q5.49-4.755,16.25-4.2c5.59.27,10.05,1.68,13.36,4.17a14.59,14.59,0,0,1,6.35,12.97,12.227,12.227,0,0,1-2.11,6.23,31.779,31.779,0,0,1-7.77,7.04,19.683,19.683,0,0,0-5.14,4.7,10.117,10.117,0,0,0-1.23,4.72h-.01Zm-15.3,3.13,15.62.87-.73,13.8-15.61-.89.72-13.77h0Z" fill="#bbb"/>
        <path id="Path_84" data-name="Path 84" d="M549.23,320.84l-16.61-.95.77-14.77,16.62.92-.78,14.79h0Zm-15.56-1.88,14.61.84.68-12.8-14.62-.81Zm15.98-15.9-15.67-.78.13-1.98a18.329,18.329,0,0,1,1.17-6.15,14.108,14.108,0,0,1,2.82-4.23,78.773,78.773,0,0,1,7.95-6.44c2.01-1.49,3.08-2.88,3.15-4.13a3.8,3.8,0,0,0-.97-2.98,4.794,4.794,0,0,0-3.34-1.19,5.732,5.732,0,0,0-4.29,1.45c-1.15,1.05-1.97,3.04-2.44,5.9l-.08.5-15.85-2.78.05-.47a20.863,20.863,0,0,1,6.87-13.25c3.75-3.25,9.34-4.7,16.6-4.32,5.64.27,10.23,1.71,13.64,4.27a15.153,15.153,0,0,1,6.55,13.4,12.578,12.578,0,0,1-2.2,6.48,32.02,32.02,0,0,1-7.92,7.18,19.221,19.221,0,0,0-5.02,4.58,9.768,9.768,0,0,0-1.13,4.43v.52h-.02Zm-14.62-1.74,13.64.68a10.817,10.817,0,0,1,1.27-4.44,20.037,20.037,0,0,1,5.32-4.88,30.985,30.985,0,0,0,7.65-6.93,11.621,11.621,0,0,0,2-5.94,14.162,14.162,0,0,0-6.13-12.53c-3.26-2.45-7.67-3.82-13.11-4.08-6.99-.36-12.35,1.01-15.89,4.08a19.827,19.827,0,0,0-6.47,12.14l13.93,2.44c.52-2.86,1.4-4.82,2.67-5.98a6.635,6.635,0,0,1,4.99-1.71,5.833,5.833,0,0,1,4.02,1.48,4.791,4.791,0,0,1,1.26,3.77c-.09,1.56-1.25,3.16-3.56,4.86a78.409,78.409,0,0,0-7.84,6.34,13.163,13.163,0,0,0-2.59,3.89,17.668,17.668,0,0,0-1.1,5.82l-.06.99h0Z" fill="#002346"/>
      </g>
      <g id="Group_32" data-name="Group 32">
        <path id="Path_85" data-name="Path 85" d="M506.04,314.11l-10.25,5.06-.43-1.03a14.333,14.333,0,0,1-1.5-4.55,10.271,10.271,0,0,1,.3-3.86,57.327,57.327,0,0,1,2.94-7.34c.87-1.91,1.04-3.36.54-4.29a3.4,3.4,0,0,0-2.07-1.91,4.183,4.183,0,0,0-3.05.5,4.842,4.842,0,0,0-2.56,2.82,8.343,8.343,0,0,0,.58,5.21l-11.14,3.86a15.949,15.949,0,0,1-.38-11.36q1.9-5.325,9.48-9.04a18.384,18.384,0,0,1,10.7-2.23,11.359,11.359,0,0,1,9.27,6.42,9.468,9.468,0,0,1,.92,5.05,24.3,24.3,0,0,1-2.6,7.81,15.984,15.984,0,0,0-1.75,5.2A7.923,7.923,0,0,0,506.04,314.11Zm-9.26,7.96,10.98-5.42,4.78,9.68-10.98,5.42-4.78-9.68h0Z" fill="#bbb"/>
        <path id="Path_86" data-name="Path 86" d="M501.33,332.42l-5.22-10.58,11.88-5.86,5.22,10.58-11.88,5.86h0Zm-3.88-10.12,4.34,8.78,10.08-4.97-4.34-8.78Zm-1.91-2.44-.64-1.52a14.671,14.671,0,0,1-1.54-4.67,10.731,10.731,0,0,1,.31-4.07,58.871,58.871,0,0,1,2.97-7.42c.78-1.72.97-3.05.55-3.84a2.95,2.95,0,0,0-1.79-1.67,3.615,3.615,0,0,0-2.63.45,4.405,4.405,0,0,0-2.34,2.55,7.875,7.875,0,0,0,.56,4.84l.23.5-12.11,4.19-.18-.43a16.393,16.393,0,0,1-.39-11.72c1.32-3.66,4.59-6.8,9.73-9.33a18.818,18.818,0,0,1,10.96-2.28,11.932,11.932,0,0,1,9.68,6.7,10.03,10.03,0,0,1,.97,5.31,24.665,24.665,0,0,1-2.66,8,15.313,15.313,0,0,0-1.69,5.04,7.5,7.5,0,0,0,.94,3.36l.26.46-11.2,5.53v.02Zm-.88-24.26a5.055,5.055,0,0,1,1.02.11,3.894,3.894,0,0,1,2.42,2.2c.56,1.05.38,2.64-.55,4.69a57.591,57.591,0,0,0-2.92,7.28,9.729,9.729,0,0,0-.28,3.65,13.64,13.64,0,0,0,1.45,4.37l.25.58,9.32-4.6a8.4,8.4,0,0,1-.82-3.45,16.3,16.3,0,0,1,1.81-5.45,23.549,23.549,0,0,0,2.54-7.65,8.9,8.9,0,0,0-.88-4.75,10.914,10.914,0,0,0-8.87-6.14,17.875,17.875,0,0,0-10.41,2.17c-4.92,2.42-8.03,5.37-9.25,8.78a15.4,15.4,0,0,0,.2,10.56l10.19-3.53a8.868,8.868,0,0,1-.4-5.02,5.4,5.4,0,0,1,2.84-3.17,4.529,4.529,0,0,1,2.34-.65v.02Z" fill="#002346"/>
      </g>
      <path id="Path_87" data-name="Path 87" d="M386,223.4a.635.635,0,0,1-.23-.05l-56.84-28.79a.491.491,0,0,1-.22-.67.511.511,0,0,1,.67-.22l56.84,28.79a.491.491,0,0,1,.22.67.5.5,0,0,1-.45.27Z" fill="#002346"/>
      <path id="Path_88" data-name="Path 88" d="M378,235.4a.635.635,0,0,1-.23-.05l-56.84-28.79a.491.491,0,0,1-.22-.67.5.5,0,0,1,.67-.22l56.84,28.79a.491.491,0,0,1,.22.67.5.5,0,0,1-.45.27Z" fill="#002346"/>
      <path id="Path_89" data-name="Path 89" d="M369,248.4a.635.635,0,0,1-.23-.05l-56.84-28.79a.491.491,0,0,1-.22-.67.5.5,0,0,1,.67-.22l56.84,28.79a.491.491,0,0,1,.22.67.5.5,0,0,1-.45.27Z" fill="#002346"/>
      <path id="Path_90" data-name="Path 90" d="M361,262.4a.465.465,0,0,1-.23-.06l-54.84-28.79a.507.507,0,0,1-.21-.68.49.49,0,0,1,.67-.21l54.84,28.79a.507.507,0,0,1,.21.68.5.5,0,0,1-.44.27h0Z" fill="#002346"/>
      <path id="Path_91" data-name="Path 91" d="M353,277.4a.465.465,0,0,1-.23-.06l-55.84-28.79a.49.49,0,0,1-.21-.67.5.5,0,0,1,.67-.22l55.84,28.79a.49.49,0,0,1,.21.67.5.5,0,0,1-.44.27h0Z" fill="#002346"/>
      <path id="Path_92" data-name="Path 92" d="M345,296.4a.545.545,0,0,1-.22-.05l-53.84-26.79a.488.488,0,0,1-.22-.67.5.5,0,0,1,.67-.23l53.84,26.79a.488.488,0,0,1,.22.67A.494.494,0,0,1,345,296.4Z" fill="#002346"/>
      <path id="Path_93" data-name="Path 93" d="M338,312.4a.635.635,0,0,1-.23-.05l-56.84-28.79a.491.491,0,0,1-.22-.67.5.5,0,0,1,.67-.22l56.84,28.79a.491.491,0,0,1,.22.67.5.5,0,0,1-.45.27Z" fill="#002346"/>
    </g>
    <g id="Group_39" data-name="Group 39">
      <g id="Group_34" data-name="Group 34">
        <path id="Path_94" data-name="Path 94" d="M705.52,339.75s14.26-12,30.46-.32c0,0,10.17,7.91,3.39,14.69,0,0-7.16,4.9-17.7-3.39,0,0-11.21-9.15-16.15-10.98h0Z" fill="#7cd295"/>
        <path id="Path_95" data-name="Path 95" d="M733.64,355.9c-3.13,0-7.34-1.05-12.21-4.88-.12-.1-11.22-9.13-16.04-10.92l-.61-.23.5-.42c.14-.12,14.68-12.05,30.92-.34.24.18,5.55,4.37,5.86,9.39a7.482,7.482,0,0,1-2.43,5.88,11.328,11.328,0,0,1-5.99,1.52h0Zm-27.36-16.25c5.18,2.27,15.19,10.42,15.63,10.78,10.2,8.02,17.18,3.42,17.24,3.37a6.706,6.706,0,0,0,2.15-5.24c-.29-4.67-5.51-8.79-5.56-8.83-14.05-10.13-26.79-2.02-29.47-.08h0Z" fill="#002346"/>
      </g>
      <g id="Group_35" data-name="Group 35">
        <path id="Path_96" data-name="Path 96" d="M689.75,333.89s15.72-21.95,6.31-43.41c0,0-10.54-21.09,1.88-27.49,0,0,15.44-6.4,23.72,16.19,0,0,11.11,32.98-31.92,54.71Z" fill="#7cd295"/>
        <path id="Path_97" data-name="Path 97" d="M688.54,334.93l.9-1.26c.16-.22,15.49-22.03,6.27-43.04-.1-.2-10.56-21.48,2.06-27.98a15.6,15.6,0,0,1,11.54.45c5.43,2.38,9.7,7.74,12.71,15.95a38.785,38.785,0,0,1,.19,19.42c-2.39,10.08-9.94,24.46-32.29,35.76l-1.38.7h0Zm14.4-72.4a14.144,14.144,0,0,0-4.85.8c-11.92,6.14-1.79,26.76-1.69,26.97,8.14,18.56-2.45,37.65-5.54,42.59,21.08-11.04,28.29-24.84,30.61-34.56a37.9,37.9,0,0,0-.16-19.04c-2.93-7.99-7.07-13.21-12.3-15.5a14.994,14.994,0,0,0-6.07-1.27h0Z" fill="#002346"/>
      </g>
      <g id="Group_36" data-name="Group 36">
        <path id="Path_98" data-name="Path 98" d="M649.78,270.63a11.331,11.331,0,0,0-6.41,10.24c.08,5.44,3.41,12.92,19.17,17.14,0,0,18.48,4.58,20.54,18.29,0,0,5.1-17-3.6-33.23A26.616,26.616,0,0,0,663.86,270C659.62,268.71,654.56,268.28,649.78,270.63Z" fill="#7cd295"/>
        <path id="Path_99" data-name="Path 99" d="M682.96,318.04l-.25-1.68c-2-13.3-20.07-17.94-20.25-17.98-15.93-4.26-19.37-11.87-19.46-17.5a11.723,11.723,0,0,1,6.62-10.58h0c4.18-2.06,9.01-2.28,14.36-.66a26.875,26.875,0,0,1,15.85,13.26c8.67,16.18,3.68,33.35,3.62,33.52l-.49,1.63h0Zm-25.74-48.72a16.228,16.228,0,0,0-7.27,1.65h0a10.973,10.973,0,0,0-6.19,9.89c.08,5.37,3.42,12.64,18.89,16.78.17.04,17.22,4.41,20.47,16.92.99-4.62,3.01-18.29-3.96-31.31a26.093,26.093,0,0,0-15.4-12.89,22.635,22.635,0,0,0-6.54-1.04h0Z" fill="#002346"/>
      </g>
      <g id="Group_37" data-name="Group 37">
        <path id="Path_100" data-name="Path 100" d="M648.91,327.09a17.659,17.659,0,0,0,5.73,5.94s11.89,6.9,14.98,16.63c0,0-.3-15.87-9.34-27.93a8.551,8.551,0,0,0-2.4-2.64c-5.33-3.83-12.03,2.19-8.98,8h.01Z" fill="#7cd295"/>
        <path id="Path_101" data-name="Path 101" d="M670.05,352.26l-.79-2.49c-3.01-9.48-14.7-16.35-14.81-16.41a18.248,18.248,0,0,1-5.88-6.09h0a6.567,6.567,0,0,1,1.51-8.14,6.3,6.3,0,0,1,8.03-.35,9.048,9.048,0,0,1,2.51,2.77c8.98,11.96,9.38,27.94,9.38,28.1l.05,2.61h0Zm-15.72-34a5.828,5.828,0,0,0-3.76,1.44,5.76,5.76,0,0,0-1.33,7.22h0a17.438,17.438,0,0,0,5.61,5.8c.43.25,10.22,6,14.21,14.5-.49-4.9-2.31-16.23-9.09-25.26a8.545,8.545,0,0,0-2.31-2.56,5.65,5.65,0,0,0-3.33-1.13h0Z" fill="#002346"/>
      </g>
      <g id="Group_38" data-name="Group 38">
        <path id="Path_102" data-name="Path 102" d="M663.3,364.67l2,39.35h33.4l2.26-38.98Z" fill="#fff"/>
        <path id="Path_103" data-name="Path 103" d="M698.7,404.4H665.3a.383.383,0,0,1-.38-.36l-2-39.35a.369.369,0,0,1,.11-.28.349.349,0,0,1,.28-.12l37.66.37a.357.357,0,0,1,.27.12.374.374,0,0,1,.1.28l-2.26,38.98a.383.383,0,0,1-.38.36h0Zm-33.04-.76h32.68l2.22-38.22-36.86-.37Z" fill="#002346"/>
      </g>
      <path id="Path_104" data-name="Path 104" d="M689.29,364.86h-.03a.381.381,0,0,1-.35-.41c.01-.16,1.3-15.69,11.99-22.93,6.33-4.28,14.62-4.86,24.66-1.7a.386.386,0,0,1,.25.48.382.382,0,0,1-.48.25c-9.8-3.08-17.87-2.54-24,1.6-10.38,7.03-11.65,22.2-11.66,22.36a.381.381,0,0,1-.38.35h0Z" fill="#002346"/>
      <path id="Path_105" data-name="Path 105" d="M683.48,364.6a.384.384,0,0,1-.37-.28,32.989,32.989,0,0,1,11.34-35.66c.87-.67,1.9-1.47,2.89-2.32,26.02-22.39,10.97-47.46,10.81-47.72a.377.377,0,0,1,.64-.4c.16.26,15.56,25.86-10.96,48.69-1,.86-2.04,1.67-2.92,2.34a32.24,32.24,0,0,0-11.07,34.85.381.381,0,0,1-.26.47c-.03,0-.07.01-.1.01v.02Z" fill="#002346"/>
      <path id="Path_106" data-name="Path 106" d="M680.78,364.87a.36.36,0,0,1-.32-.18c-9.2-14.83-2.34-33.73-.02-39.16a28.907,28.907,0,0,0,1.3-3.6c6.46-23.28-13.18-37.41-13.38-37.55a.38.38,0,1,1,.44-.62c.2.14,20.29,14.57,13.68,38.37a28.721,28.721,0,0,1-1.33,3.69c-2.29,5.35-9.05,23.94-.03,38.46a.374.374,0,0,1-.12.52.361.361,0,0,1-.2.06h-.02Z" fill="#002346"/>
      <path id="Path_107" data-name="Path 107" d="M671.1,364.64h-.02a.372.372,0,0,1-.36-.39c1-24.73-13.51-34.57-13.65-34.66a.4.4,0,0,1-.11-.53.385.385,0,0,1,.53-.11c.15.1,15.01,10.15,13.99,35.33A.376.376,0,0,1,671.1,364.64Z" fill="#002346"/>
    </g>
    <text id="Unhandled" transform="translate(503.979 128.035)" fill="#002346" font-size="20" font-family="SegoeUI, Segoe UI"><tspan x="0" y="22">Unhandled</tspan></text>
  </g>
</svg>
